Coordinates
version=1
nRows=11
nColumns=36
inDegrees=yes

Units are S.I. units (second, meters, Newtons, ...)
If the header above contains a line with 'inDegrees', this indicates whether rotational values are in degrees (yes) or radians (no).

endheader
time	pelvis_tilt	pelvis_list	pelvis_rotation	pelvis_tx	pelvis_ty	pelvis_tz	hip_flexion_r	hip_adduction_r	hip_rotation_r	knee_angle_r	knee_angle_r_beta	ankle_angle_r	subtalar_angle_r	mtp_angle_r	hip_flexion_l	hip_adduction_l	hip_rotation_l	knee_angle_l	knee_angle_l_beta	ankle_angle_l	subtalar_angle_l	mtp_angle_l	lumbar_extension	lumbar_bending	lumbar_rotation	arm_flex_r	arm_add_r	arm_rot_r	elbow_flex_r	pro_sup_r	arm_flex_l	arm_add_l	arm_rot_l	elbow_flex_l	pro_sup_l
      0.65000000	     -0.46585434	     -1.27033299	     -0.80307825	      0.63244351	      1.00983390	     -0.18682178	    -11.68948938	      2.61039420	     -7.52117791	     26.71201277	      0.46621257	      3.70183000	      8.44472499	     -6.82687343	     20.89604940	      2.19624639	     -7.01433103	      2.26087059	      0.03945964	     -5.97580100	      3.44114071	     -6.82687343	     -9.40043597	     -0.71479642	     10.68592391	      0.17872296	    -14.35266153	    -15.03607628	     73.97414710	    108.52818121	    -31.37338168	      3.16491622	    -17.60023907	     27.47692677	     96.70869609
      0.66000000	     -0.49494357	     -0.78946242	     -0.62364965	      0.64824214	      1.01077595	     -0.18874482	     -9.96049069	      1.52377274	     -8.24127446	     30.77430525	      0.53711295	      0.88956598	      7.26375552	     -6.85755236	     20.31417560	      2.87008655	     -6.11745560	      2.61528344	      0.04564531	     -7.57733600	      1.05845178	     -6.85755236	     -9.27828643	     -1.17367077	     10.17954687	     -0.45136528	    -13.77788234	    -15.30388038	     73.74396314	    108.46470450	    -31.13730061	      3.18417429	    -17.76775298	     27.46652262	     96.68281895
      0.67000000	     -0.44445990	     -0.14987944	     -0.44912712	      0.66369839	      1.01193141	     -0.19059071	     -8.09890497	      0.19945084	     -8.92842135	     35.03333433	      0.61144703	     -2.28757039	      5.97286438	     -6.87734940	     19.78640511	      3.62086971	     -6.05516857	      3.29948179	      0.05758682	     -8.21066933	      0.33709187	     -6.87734940	     -9.30450655	     -1.82507546	      9.51925269	     -0.94827597	    -13.15088999	    -15.40643806	     73.32085704	    108.34633123	    -30.82546788	      3.18618305	    -17.80726941	     27.58542201	     96.66929769
      0.68000000	     -0.36402602	      0.61615222	     -0.25519448	      0.67866718	      1.01321310	     -0.19245715	     -6.09340192	     -1.31163475	     -9.53335770	     39.38462534	      0.68739139	     -5.58505600	      4.72169348	     -6.88846235	     19.24261228	      4.50411821	     -6.11659933	      4.04763572	      0.07064457	     -8.35990373	     -0.03217103	     -6.88846235	     -9.43402726	     -2.61317367	      8.81790208	     -1.42862800	    -12.50094036	    -15.49323222	     72.79911991	    108.18620676	    -30.35784579	      3.12738302	    -17.80284673	     27.78609065	     96.64776461
      0.69000000	     -0.58053850	      1.29689249	     -0.09583641	      0.69294888	      1.01416053	     -0.19402974	     -3.56600564	     -2.62469942	     -9.68602980	     43.77111973	      0.76395016	     -8.97505386	      2.86660223	     -6.90345347	     19.04424872	      5.27328149	     -6.18238641	      4.82050929	      0.08413376	     -8.37591784	     -0.57593570	     -6.90345347	     -9.28888062	     -3.32840475	      8.06665573	     -1.82613851	    -11.80883485	    -15.58014548	     72.10028426	    108.12978020	    -29.86170280	      3.06069383	    -17.82818053	     28.05826586	     96.70539662
      0.70000000	     -0.55922003	      2.13076617	      0.06014714	      0.70691858	      1.01551398	     -0.19567354	     -1.25945681	     -4.12230918	     -9.73983530	     47.95288573	      0.83693574	    -11.68338419	      1.59680872	     -6.91165872	     18.47325955	      6.23132124	     -6.31797711	      5.39328028	      0.09413050	     -7.99143601	     -0.66231805	     -6.91165872	     -9.47306359	     -4.19410594	      7.30939299	     -2.21089448	    -11.10258147	    -15.67668171	     71.37139182	    108.06022505	    -29.17084218	      2.93697286	    -17.77517017	     28.36847723	     96.76092999
      0.71000000	     -0.88337265	      2.75988771	      0.16687577	      0.72030155	      1.01656357	     -0.19695297	      1.52936962	     -5.19222022	     -9.33994249	     51.91776505	      0.90613594	    -13.81026486	     -0.28034024	     -6.92524411	     18.30858652	      6.93729949	     -6.58873142	      5.99333977	      0.10460351	     -7.56010960	     -0.61773597	     -6.92524411	     -9.28148179	     -4.85764568	      6.60031715	     -2.53706802	    -10.39566983	    -15.73074441	     70.36850762	    107.96004657	    -28.46300715	      2.78031480	    -17.73388264	     28.81485601	     96.84613385
      0.72000000	     -0.86944195	      3.42925803	      0.23104926	      0.73360693	      1.01825824	     -0.19822973	      3.89616533	     -6.26076722	     -8.85460248	     55.46049647	      0.96796827	    -14.74183824	     -1.59440586	     -6.93313216	     17.56487142	      7.72543413	     -6.79877797	      6.20620706	      0.10831875	     -6.90290210	     -0.40817129	     -6.93313216	     -9.50194551	     -5.54304841	      5.94648609	     -2.87414418	     -9.69654721	    -15.82867798	     69.35962394	    107.86362452	    -27.54402928	      2.58015415	    -17.63195472	     29.20960283	     96.91841045
      0.73000000	     -1.05710610	      3.86402369	      0.23438153	      0.74650003	      1.01989400	     -0.19917780	      6.51899297	     -6.86908741	     -8.08877796	     58.63282769	      1.02333589	    -14.76453102	     -3.14243194	     -6.94453173	     17.02777633	      8.23498251	     -7.07809067	      6.38288549	      0.11140237	     -6.32289802	     -0.01872596	     -6.94453173	     -9.48568071	     -5.99400084	      5.38724588	     -3.14647955	     -9.02010010	    -15.88415268	     68.08761313	    107.74617782	    -26.59619309	      2.33765333	    -17.48470777	     29.71273092	     97.02036434
      0.74000000	     -0.93252683	      4.21288566	      0.17730983	      0.75948680	      1.02217336	     -0.20011401	      8.69053714	     -7.30007185	     -7.30844204	     61.23558808	      1.06876263	    -13.92907366	     -4.55141098	     -6.95083271	     15.92267860	      8.69761419	     -7.25229877	      6.12932848	      0.10697696	     -5.59342495	      0.25848680	     -6.95083271	     -9.79955646	     -6.31682740	      4.91178099	     -3.44706974	     -8.40274332	    -15.98754797	     66.83537073	    107.64187168	    -25.47722536	      2.08293041	    -17.32837062	     30.12552617	     97.09771407
      0.75000000	     -0.82602760	      4.36864655	      0.08375221	      0.77228825	      1.02465646	     -0.20085792	     10.82599941	     -7.36945937	     -6.43308193	     63.32529875	      1.10523496	    -12.60878203	     -5.98247675	     -6.95556100	     14.76564064	      8.95710162	     -7.30911729	      5.74462848	      0.10026268	     -4.99931651	      0.57174282	     -6.95556100	    -10.09367072	     -6.44756469	      4.52690599	     -3.74928377	     -7.82164786	    -16.08815731	     65.44307262	    107.53896665	    -24.28009997	      1.80938340	    -17.14050202	     30.60092463	     97.18048883
